# xmcd CD database file
#
# Track frame offsets:
#	150
#	11754
#	24375
#	36817
#	49110
#	60780
#	73531
#	87587
#	100480
#	113870
#	126610
#	137735
#	151536
#	165518
#	179310
#	193060
#	208650
#	221490
#	236480
#	257226
#	276956
#
# Disc length: 3935 seconds
#
# Revision: 0
# Processed by: cddbd v1.5.2PL0 Copyright (c) Steve Scherf et al.
# Submitted via: CDex 1.70beta2
#
DISCID=2c0f5d15
DTITLE=Wardell gray - Bebop Story Vol 2 1948-49 CD 044
DYEAR=2008
DGENRE=Jazz
TTITLE0=Light Gray
TTITLE1=Stoned
TTITLE2=Stoned
TTITLE3=Matter And Mind
TTITLE4=The Group
TTITLE5=Ollopa
TTITLE6=This Is It
TTITLE7=Sugar Hipd
TTITLE8=Coastin With J.C.
TTITLE9=Five Star
TTITLE10=Sugar Hill Bop
TTITLE11=In A Pinch
TTITLE12=It's The Talk Of The Town
TTITLE13=Twisted
TTITLE14=Twisted
TTITLE15=Twisted
TTITLE16=Southside
TTITLE17=Southside
TTITLE18=EasyLibving
TTITLE19=EasyLiving
TTITLE20=Sweet Lorraine
EXTD=YEAR: 2008
EXTT0=
EXTT1=
EXTT2=
EXTT3=
EXTT4=
EXTT5=
EXTT6=
EXTT7=
EXTT8=
EXTT9=
EXTT10=
EXTT11=
EXTT12=
EXTT13=
EXTT14=
EXTT15=
EXTT16=
EXTT17=
EXTT18=
EXTT19=
EXTT20=
PLAYORDER=
